<svg xmlns="http://www.w3.org/2000/svg" xmlns:xlink="http://www.w3.org/1999/xlink" width="500" zoomAndPan="magnify" viewBox="0 0 375 374.999991" height="500" preserveAspectRatio="xMidYMid meet" version="1.0"><defs><g/></defs><g fill="#8c52ff" fill-opacity="1"><g transform="translate(310.009964, 184.682078)"><g><path d="M 14.25 -40.953125 L 22.46875 -40.953125 L 6.421875 4.859375 L -1.796875 4.859375 Z M 14.25 -40.953125 "/></g></g></g><g fill="#8c52ff" fill-opacity="1"><g transform="translate(330.188515, 184.682078)"><g><path d="M 26.796875 -20.765625 L 26.796875 -13.28125 L 2.828125 -4.421875 L 2.828125 -11.53125 L 18.34375 -17.03125 L 2.828125 -22.515625 L 2.828125 -29.625 Z M 26.796875 -20.765625 "/></g></g></g><g fill="#8c52ff" fill-opacity="1"><g transform="translate(21.768314, 183.537848)"><g><path d="M 24.875 -20.90625 L 10.46875 -15.796875 L 24.875 -10.703125 L 24.875 -4.109375 L 2.625 -12.328125 L 2.625 -19.28125 L 24.875 -27.5 Z M 24.875 -20.90625 "/></g></g></g><g fill="#ffffff" fill-opacity="1"><g transform="translate(56.878488, 180.697899)"><g><path d="M 18.265625 -9.03125 L 13.015625 -9.03125 L 13.015625 0 L 3.40625 0 L 3.40625 -34 L 18.9375 -34 C 22.007812 -34 24.679688 -33.488281 26.953125 -32.46875 C 29.222656 -31.445312 30.972656 -29.988281 32.203125 -28.09375 C 33.429688 -26.195312 34.046875 -23.972656 34.046875 -21.421875 C 34.046875 -18.953125 33.46875 -16.800781 32.3125 -14.96875 C 31.164062 -13.144531 29.523438 -11.71875 27.390625 -10.6875 L 34.71875 0 L 24.421875 0 Z M 24.328125 -21.421875 C 24.328125 -23.003906 23.820312 -24.234375 22.8125 -25.109375 C 21.8125 -25.984375 20.328125 -26.421875 18.359375 -26.421875 L 13.015625 -26.421875 L 13.015625 -16.46875 L 18.359375 -16.46875 C 20.328125 -16.46875 21.8125 -16.894531 22.8125 -17.75 C 23.820312 -18.601562 24.328125 -19.828125 24.328125 -21.421875 Z M 24.328125 -21.421875 "/></g></g></g><g fill="#ffffff" fill-opacity="1"><g transform="translate(92.814708, 180.697899)"><g><path d="M 20.546875 0.6875 C 16.953125 0.6875 13.722656 -0.0703125 10.859375 -1.59375 C 7.992188 -3.125 5.742188 -5.234375 4.109375 -7.921875 C 2.472656 -10.609375 1.65625 -13.632812 1.65625 -17 C 1.65625 -20.363281 2.472656 -23.390625 4.109375 -26.078125 C 5.742188 -28.765625 7.992188 -30.867188 10.859375 -32.390625 C 13.722656 -33.910156 16.953125 -34.671875 20.546875 -34.671875 C 24.140625 -34.671875 27.367188 -33.910156 30.234375 -32.390625 C 33.097656 -30.867188 35.347656 -28.765625 36.984375 -26.078125 C 38.617188 -23.390625 39.4375 -20.363281 39.4375 -17 C 39.4375 -13.632812 38.617188 -10.609375 36.984375 -7.921875 C 35.347656 -5.234375 33.097656 -3.125 30.234375 -1.59375 C 27.367188 -0.0703125 24.140625 0.6875 20.546875 0.6875 Z M 20.546875 -7.28125 C 22.253906 -7.28125 23.804688 -7.6875 25.203125 -8.5 C 26.597656 -9.3125 27.695312 -10.453125 28.5 -11.921875 C 29.3125 -13.390625 29.71875 -15.082031 29.71875 -17 C 29.71875 -18.90625 29.3125 -20.59375 28.5 -22.0625 C 27.695312 -23.539062 26.597656 -24.679688 25.203125 -25.484375 C 23.804688 -26.296875 22.253906 -26.703125 20.546875 -26.703125 C 18.828125 -26.703125 17.269531 -26.296875 15.875 -25.484375 C 14.488281 -24.679688 13.390625 -23.539062 12.578125 -22.0625 C 11.765625 -20.59375 11.359375 -18.90625 11.359375 -17 C 11.359375 -15.082031 11.765625 -13.390625 12.578125 -11.921875 C 13.390625 -10.453125 14.488281 -9.3125 15.875 -8.5 C 17.269531 -7.6875 18.828125 -7.28125 20.546875 -7.28125 Z M 20.546875 -7.28125 "/></g></g></g><g fill="#ffffff" fill-opacity="1"><g transform="translate(133.898548, 180.697899)"><g><path d="M 3.40625 -34 L 19.46875 -34 C 23.195312 -34 26.5 -33.300781 29.375 -31.90625 C 32.257812 -30.507812 34.492188 -28.53125 36.078125 -25.96875 C 37.671875 -23.414062 38.46875 -20.425781 38.46875 -17 C 38.46875 -13.5625 37.671875 -10.5625 36.078125 -8 C 34.492188 -5.445312 32.257812 -3.472656 29.375 -2.078125 C 26.5 -0.691406 23.195312 0 19.46875 0 L 3.40625 0 Z M 19.078125 -7.671875 C 21.992188 -7.671875 24.332031 -8.492188 26.09375 -10.140625 C 27.863281 -11.796875 28.75 -14.082031 28.75 -17 C 28.75 -19.914062 27.863281 -22.195312 26.09375 -23.84375 C 24.332031 -25.5 21.992188 -26.328125 19.078125 -26.328125 L 13.015625 -26.328125 L 13.015625 -7.671875 Z M 19.078125 -7.671875 "/></g></g></g><g fill="#ffffff" fill-opacity="1"><g transform="translate(174.01114, 180.697899)"><g><path d="M 18.265625 -9.03125 L 13.015625 -9.03125 L 13.015625 0 L 3.40625 0 L 3.40625 -34 L 18.9375 -34 C 22.007812 -34 24.679688 -33.488281 26.953125 -32.46875 C 29.222656 -31.445312 30.972656 -29.988281 32.203125 -28.09375 C 33.429688 -26.195312 34.046875 -23.972656 34.046875 -21.421875 C 34.046875 -18.953125 33.46875 -16.800781 32.3125 -14.96875 C 31.164062 -13.144531 29.523438 -11.71875 27.390625 -10.6875 L 34.71875 0 L 24.421875 0 Z M 24.328125 -21.421875 C 24.328125 -23.003906 23.820312 -24.234375 22.8125 -25.109375 C 21.8125 -25.984375 20.328125 -26.421875 18.359375 -26.421875 L 13.015625 -26.421875 L 13.015625 -16.46875 L 18.359375 -16.46875 C 20.328125 -16.46875 21.8125 -16.894531 22.8125 -17.75 C 23.820312 -18.601562 24.328125 -19.828125 24.328125 -21.421875 Z M 24.328125 -21.421875 "/></g></g></g><g fill="#ffffff" fill-opacity="1"><g transform="translate(209.94736, 180.697899)"><g><path d="M 3.40625 -34 L 13.015625 -34 L 13.015625 0 L 3.40625 0 Z M 3.40625 -34 "/></g></g></g><g fill="#ffffff" fill-opacity="1"><g transform="translate(226.41004, 180.697899)"><g><path d="M 26.171875 -17.71875 L 34.671875 -17.71875 L 34.671875 -3.640625 C 32.734375 -2.242188 30.5 -1.171875 27.96875 -0.421875 C 25.445312 0.316406 22.921875 0.6875 20.390625 0.6875 C 16.828125 0.6875 13.617188 -0.0664062 10.765625 -1.578125 C 7.921875 -3.085938 5.691406 -5.179688 4.078125 -7.859375 C 2.460938 -10.546875 1.65625 -13.59375 1.65625 -17 C 1.65625 -20.394531 2.460938 -23.4375 4.078125 -26.125 C 5.691406 -28.8125 7.941406 -30.90625 10.828125 -32.40625 C 13.710938 -33.914062 16.96875 -34.671875 20.59375 -34.671875 C 23.757812 -34.671875 26.601562 -34.132812 29.125 -33.0625 C 31.65625 -32 33.765625 -30.460938 35.453125 -28.453125 L 29.328125 -22.921875 C 27.035156 -25.441406 24.285156 -26.703125 21.078125 -26.703125 C 18.160156 -26.703125 15.8125 -25.820312 14.03125 -24.0625 C 12.25 -22.300781 11.359375 -19.945312 11.359375 -17 C 11.359375 -15.125 11.765625 -13.445312 12.578125 -11.96875 C 13.390625 -10.5 14.519531 -9.347656 15.96875 -8.515625 C 17.425781 -7.691406 19.097656 -7.28125 20.984375 -7.28125 C 22.828125 -7.28125 24.554688 -7.65625 26.171875 -8.40625 Z M 26.171875 -17.71875 "/></g></g></g><g fill="#ffffff" fill-opacity="1"><g transform="translate(263.803126, 180.697899)"><g><path d="M 20.546875 0.6875 C 16.953125 0.6875 13.722656 -0.0703125 10.859375 -1.59375 C 7.992188 -3.125 5.742188 -5.234375 4.109375 -7.921875 C 2.472656 -10.609375 1.65625 -13.632812 1.65625 -17 C 1.65625 -20.363281 2.472656 -23.390625 4.109375 -26.078125 C 5.742188 -28.765625 7.992188 -30.867188 10.859375 -32.390625 C 13.722656 -33.910156 16.953125 -34.671875 20.546875 -34.671875 C 24.140625 -34.671875 27.367188 -33.910156 30.234375 -32.390625 C 33.097656 -30.867188 35.347656 -28.765625 36.984375 -26.078125 C 38.617188 -23.390625 39.4375 -20.363281 39.4375 -17 C 39.4375 -13.632812 38.617188 -10.609375 36.984375 -7.921875 C 35.347656 -5.234375 33.097656 -3.125 30.234375 -1.59375 C 27.367188 -0.0703125 24.140625 0.6875 20.546875 0.6875 Z M 20.546875 -7.28125 C 22.253906 -7.28125 23.804688 -7.6875 25.203125 -8.5 C 26.597656 -9.3125 27.695312 -10.453125 28.5 -11.921875 C 29.3125 -13.390625 29.71875 -15.082031 29.71875 -17 C 29.71875 -18.90625 29.3125 -20.59375 28.5 -22.0625 C 27.695312 -23.539062 26.597656 -24.679688 25.203125 -25.484375 C 23.804688 -26.296875 22.253906 -26.703125 20.546875 -26.703125 C 18.828125 -26.703125 17.269531 -26.296875 15.875 -25.484375 C 14.488281 -24.679688 13.390625 -23.539062 12.578125 -22.0625 C 11.765625 -20.59375 11.359375 -18.90625 11.359375 -17 C 11.359375 -15.082031 11.765625 -13.390625 12.578125 -11.921875 C 13.390625 -10.453125 14.488281 -9.3125 15.875 -8.5 C 17.269531 -7.6875 18.828125 -7.28125 20.546875 -7.28125 Z M 20.546875 -7.28125 "/></g></g></g><g fill="#ffffff" fill-opacity="1"><g transform="translate(122.663307, 217.807164)"><g><path d="M 12.421875 -3.609375 L 4.359375 -3.609375 L 2.828125 0 L 0.015625 0 L 7.078125 -15.984375 L 9.84375 -15.984375 L 16.828125 0 L 13.953125 0 Z M 11.40625 -6.015625 L 8.390625 -13.109375 L 5.375 -6.015625 Z M 11.40625 -6.015625 "/></g></g></g><g fill="#ffffff" fill-opacity="1"><g transform="translate(139.510451, 217.807164)"><g><path d="M 14.234375 -14.046875 L 4.5 -2.421875 L 14.34375 -2.421875 L 14.34375 0 L 0.84375 0 L 0.84375 -1.9375 L 10.59375 -13.5625 L 1.140625 -13.5625 L 1.140625 -15.984375 L 14.234375 -15.984375 Z M 14.234375 -14.046875 "/></g></g></g><g fill="#ffffff" fill-opacity="1"><g transform="translate(154.713971, 217.807164)"><g><path d="M 13.53125 -13.5625 L 4.796875 -13.5625 L 4.796875 -9.25 L 12.609375 -9.25 L 12.609375 -6.828125 L 4.796875 -6.828125 L 4.796875 -2.421875 L 13.796875 -2.421875 L 13.796875 0 L 2.109375 0 L 2.109375 -15.984375 L 13.53125 -15.984375 Z M 13.53125 -13.5625 "/></g></g></g><g fill="#ffffff" fill-opacity="1"><g transform="translate(169.689205, 217.807164)"><g><path d="M 9.234375 0 L 6.4375 0 L 0.0625 -15.984375 L 2.96875 -15.984375 L 7.90625 -3 L 12.890625 -15.984375 L 15.6875 -15.984375 Z M 9.234375 0 "/></g></g></g><g fill="#ffffff" fill-opacity="1"><g transform="translate(185.440601, 217.807164)"><g><path d="M 13.53125 -13.5625 L 4.796875 -13.5625 L 4.796875 -9.25 L 12.609375 -9.25 L 12.609375 -6.828125 L 4.796875 -6.828125 L 4.796875 -2.421875 L 13.796875 -2.421875 L 13.796875 0 L 2.109375 0 L 2.109375 -15.984375 L 13.53125 -15.984375 Z M 13.53125 -13.5625 "/></g></g></g><g fill="#ffffff" fill-opacity="1"><g transform="translate(200.415835, 217.807164)"><g><path d="M 2.109375 -15.984375 L 8.65625 -15.984375 C 11.050781 -15.984375 13.023438 -15.226562 14.578125 -13.71875 C 16.140625 -12.21875 16.921875 -10.304688 16.921875 -7.984375 C 16.921875 -5.671875 16.132812 -3.757812 14.5625 -2.25 C 13 -0.75 11.007812 0 8.59375 0 L 2.109375 0 Z M 4.796875 -13.5625 L 4.796875 -2.421875 L 8.71875 -2.421875 C 10.289062 -2.421875 11.597656 -2.941406 12.640625 -3.984375 C 13.679688 -5.023438 14.203125 -6.351562 14.203125 -7.96875 C 14.203125 -9.582031 13.664062 -10.914062 12.59375 -11.96875 C 11.519531 -13.03125 10.191406 -13.5625 8.609375 -13.5625 Z M 4.796875 -13.5625 "/></g></g></g><g fill="#ffffff" fill-opacity="1"><g transform="translate(218.10761, 217.807164)"><g><path d="M 3.21875 -13.734375 C 4.851562 -15.285156 6.863281 -16.0625 9.25 -16.0625 C 11.644531 -16.0625 13.65625 -15.285156 15.28125 -13.734375 C 16.914062 -12.191406 17.734375 -10.273438 17.734375 -7.984375 C 17.734375 -5.703125 16.914062 -3.78125 15.28125 -2.21875 C 13.65625 -0.664062 11.644531 0.109375 9.25 0.109375 C 6.863281 0.109375 4.851562 -0.664062 3.21875 -2.21875 C 1.59375 -3.78125 0.78125 -5.703125 0.78125 -7.984375 C 0.78125 -10.273438 1.59375 -12.191406 3.21875 -13.734375 Z M 9.28125 -13.640625 C 7.695312 -13.640625 6.335938 -13.09375 5.203125 -12 C 4.078125 -10.914062 3.515625 -9.582031 3.515625 -8 C 3.515625 -6.414062 4.082031 -5.070312 5.21875 -3.96875 C 6.351562 -2.863281 7.703125 -2.3125 9.265625 -2.3125 C 10.835938 -2.3125 12.179688 -2.863281 13.296875 -3.96875 C 14.410156 -5.070312 14.96875 -6.414062 14.96875 -8 C 14.96875 -9.582031 14.410156 -10.914062 13.296875 -12 C 12.179688 -13.09375 10.84375 -13.640625 9.28125 -13.640625 Z M 9.28125 -13.640625 "/></g></g></g></svg>